<?xml version="1.0" encoding="UTF-8"?>
<svg width="73px" height="16px" viewBox="0 0 73 16" version="1.1" xmlns="http://www.w3.org/2000/svg" xmlns:xlink="http://www.w3.org/1999/xlink">
    <title>24DB9853-1B23-4070-BB39-ABAE40FB88F5</title>
    <g id="Page-1" stroke="none" stroke-width="1" fill="none" fill-rule="evenodd">
        <g id="Result" transform="translate(-134.000000, -22.000000)" fill="#FFFFFF" fill-rule="nonzero">
            <path d="M140.57,34.6 C141.092,34.6 141.506,34.168 141.506,33.646 L141.506,29.344 C141.506,27.31 139.832,25.6 137.744,25.6 C137.042,25.6 136.376,25.816 135.836,26.158 C135.674,25.816 135.332,25.6 134.954,25.6 C134.414,25.6 134,26.032 134,26.554 L134,33.646 C134,34.168 134.414,34.6 134.954,34.6 C135.422,34.6 135.818,34.258 135.908,33.826 C135.944,33.754 135.944,33.7 135.944,33.646 L135.944,29.344 C135.944,28.336 136.736,27.526 137.744,27.526 C138.77,27.526 139.616,28.336 139.616,29.344 L139.616,33.646 C139.616,34.168 140.066,34.6 140.57,34.6 Z M148.76,37.822 C151.154,37.822 153.08,35.86 153.08,33.502 L153.08,26.554 C153.08,26.032 152.666,25.6 152.126,25.6 C151.658,25.6 151.262,25.924 151.172,26.356 C150.524,25.888 149.696,25.6 148.76,25.6 C147.572,25.6 146.474,26.122 145.7,26.932 C144.926,27.778 144.44,28.894 144.44,30.136 C144.44,31.396 144.926,32.512 145.7,33.304 C146.474,34.15 147.572,34.672 148.76,34.672 C149.642,34.672 150.47,34.402 151.118,33.952 C150.884,35.05 149.93,35.878 148.76,35.878 C148.382,35.878 148.04,35.788 147.734,35.626 C147.23,35.41 146.672,35.59 146.438,36.076 C146.186,36.562 146.402,37.156 146.87,37.372 C147.428,37.66 148.094,37.822 148.76,37.822 Z M148.76,32.728 C148.13,32.728 147.536,32.476 147.104,31.99 C146.672,31.576 146.384,30.892 146.384,30.136 C146.384,29.416 146.672,28.732 147.104,28.3 C147.536,27.796 148.13,27.526 148.76,27.526 C149.444,27.526 150.002,27.796 150.47,28.3 C150.866,28.732 151.154,29.416 151.154,30.136 C151.154,30.892 150.866,31.576 150.47,31.99 C150.002,32.476 149.444,32.728 148.76,32.728 Z M169.1,34.6 C169.622,34.6 170.054,34.168 170.054,33.646 L170.054,29.38 C170.054,27.292 168.38,25.6 166.31,25.6 C165.176,25.6 164.15,26.068 163.484,26.842 C162.8,26.068 161.792,25.6 160.658,25.6 C159.974,25.6 159.308,25.798 158.732,26.14 C158.588,25.798 158.246,25.6 157.868,25.6 C157.346,25.6 156.914,26.014 156.914,26.572 L156.914,33.646 C156.914,34.114 157.256,34.474 157.688,34.582 C157.742,34.582 157.796,34.6 157.868,34.6 C158.246,34.6 158.606,34.348 158.768,34.024 L158.768,33.934 L158.768,33.934 C158.804,33.898 158.804,33.862 158.822,33.826 L158.822,33.772 L158.822,33.772 C158.822,33.736 158.84,33.682 158.84,33.646 L158.84,29.38 C158.84,28.354 159.668,27.526 160.658,27.526 C161.666,27.526 162.494,28.336 162.512,29.326 L162.512,33.646 C162.512,34.1307143 162.915531,34.5378265 163.376708,34.5935124 L163.484,34.6 L163.484,34.6 C164.006,34.6 164.438,34.168 164.438,33.646 L164.438,29.326 L164.438,29.326 C164.474,28.336 165.284,27.526 166.31,27.526 C167.3,27.526 168.128,28.354 168.128,29.38 L168.128,33.646 C168.128,34.168 168.578,34.6 169.1,34.6 Z M177.596,34.6 C179.666,34.6 181.394,32.908 181.394,30.856 L181.394,26.554 C181.394,26.05 180.926,25.6 180.422,25.6 C179.882,25.6 179.486,26.05 179.486,26.554 L179.486,30.856 C179.468,31.882 178.64,32.692 177.596,32.692 C176.57,32.692 175.76,31.882 175.76,30.856 L175.76,26.554 C175.76,26.05 175.346,25.6 174.806,25.6 C174.284,25.6 173.852,26.05 173.852,26.554 L173.852,30.856 C173.852,32.908 175.544,34.6 177.596,34.6 Z M187.964,34.6 C188.846,34.6 189.656,34.33 190.304,33.88 C190.952,33.412 191.438,32.674 191.438,31.792 C191.438,31.378 191.312,30.964 191.096,30.604 C190.79,30.1 190.304,29.758 189.818,29.542 C189.296,29.29 188.738,29.128 188.144,29.02 L188.126,29.02 L188.108,29.002 C187.496,28.894 187.028,28.732 186.794,28.57 C186.668,28.498 186.614,28.426 186.596,28.39 C186.56,28.336 186.56,28.318 186.56,28.246 C186.56,28.156 186.614,27.994 186.848,27.832 C187.082,27.652 187.478,27.508 187.928,27.508 C188.504,27.508 189.008,27.796 189.584,28.174 C190.034,28.48 190.628,28.354 190.916,27.922 C191.165231,27.5066154 191.077041,26.9685325 190.722219,26.6616887 L190.628,26.59 C190.052,26.194 189.17,25.6 187.928,25.6 C187.1,25.6 186.344,25.834 185.714,26.266 C185.12,26.716 184.652,27.418 184.652,28.246 C184.652,28.66 184.76,29.056 184.958,29.38 C185.282,29.866 185.714,30.19 186.2,30.424 C186.668,30.64 187.208,30.784 187.766,30.892 L187.784,30.892 C188.432,31.018 188.972,31.216 189.224,31.396 C189.368,31.486 189.44,31.558 189.458,31.612 C189.494,31.666 189.512,31.702 189.512,31.792 C189.512,31.936 189.44,32.116 189.188,32.332 C188.9,32.512 188.45,32.674 187.964,32.674 C187.262,32.692 186.452,32.278 185.984,31.882 C185.588,31.54 184.958,31.594 184.634,32.026 C184.31,32.422 184.364,33.034 184.76,33.358 C185.48,33.934 186.56,34.582 187.964,34.6 Z M194.912,24.34 C195.47,24.34 195.884,23.89 195.884,23.35 L195.884,22.972 C195.884,22.432 195.47,22 194.912,22 C194.372,22 193.94,22.432 193.94,22.972 L193.94,23.35 C193.94,23.89 194.372,24.34 194.912,24.34 Z M194.912,34.6 C195.47,34.6 195.884,34.168 195.884,33.628 L195.884,26.608 C195.884,26.032 195.47,25.618 194.912,25.618 C194.372,25.618 193.94,26.032 193.94,26.608 L193.94,33.628 C193.94,34.168 194.372,34.6 194.912,34.6 Z M202.922,34.6 C204.002,34.6 205.01,34.204 205.784,33.646 C206.198,33.286 206.27,32.71 205.982,32.314 C205.622,31.882 205.028,31.81 204.632,32.116 C204.164,32.458 203.57,32.692 202.922,32.692 C201.464,32.692 200.258,31.504 200.258,30.118 C200.258,28.732 201.464,27.526 202.922,27.526 C203.588,27.526 204.164,27.76 204.632,28.102 C205.046,28.426 205.622,28.354 205.982,27.922 C206.27,27.526 206.198,26.914 205.784,26.59 C205.01,25.996 204.002,25.6 202.922,25.6 C200.438,25.618 198.35,27.616 198.35,30.118 C198.35,32.584 200.438,34.6 202.922,34.6 Z" id="ngmusic"></path>
        </g>
    </g>
</svg>