<?xml version="1.0" encoding="UTF-8"?>
<svg width="73px" height="85px" viewBox="0 0 73 85" version="1.1" xmlns="http://www.w3.org/2000/svg" xmlns:xlink="http://www.w3.org/1999/xlink">
    <title>D68318B3-8ED6-44C3-9F15-5F51BBEFD0C3</title>
    <g id="Page-1" stroke="none" stroke-width="1" fill="none" fill-rule="evenodd">
        <g id="Home" transform="translate(-134.000000, -255.000000)">
            <g id="logo" transform="translate(134.000000, 256.000000)">
                <path d="M6.57,80.6 C7.092,80.6 7.506,80.168 7.506,79.646 L7.506,75.344 C7.506,73.31 5.832,71.6 3.744,71.6 C3.042,71.6 2.376,71.816 1.836,72.158 C1.674,71.816 1.332,71.6 0.954,71.6 C0.414,71.6 1.42108547e-14,72.032 1.42108547e-14,72.554 L1.42108547e-14,79.646 C1.42108547e-14,80.168 0.414,80.6 0.954,80.6 C1.422,80.6 1.818,80.258 1.908,79.826 C1.944,79.754 1.944,79.7 1.944,79.646 L1.944,75.344 C1.944,74.336 2.736,73.526 3.744,73.526 C4.77,73.526 5.616,74.336 5.616,75.344 L5.616,79.646 C5.616,80.168 6.066,80.6 6.57,80.6 Z M14.76,83.822 C17.154,83.822 19.08,81.86 19.08,79.502 L19.08,72.554 C19.08,72.032 18.666,71.6 18.126,71.6 C17.658,71.6 17.262,71.924 17.172,72.356 C16.524,71.888 15.696,71.6 14.76,71.6 C13.572,71.6 12.474,72.122 11.7,72.932 C10.926,73.778 10.44,74.894 10.44,76.136 C10.44,77.396 10.926,78.512 11.7,79.304 C12.474,80.15 13.572,80.672 14.76,80.672 C15.642,80.672 16.47,80.402 17.118,79.952 C16.884,81.05 15.93,81.878 14.76,81.878 C14.382,81.878 14.04,81.788 13.734,81.626 C13.23,81.41 12.672,81.59 12.438,82.076 C12.186,82.562 12.402,83.156 12.87,83.372 C13.428,83.66 14.094,83.822 14.76,83.822 Z M14.76,78.728 C14.13,78.728 13.536,78.476 13.104,77.99 C12.672,77.576 12.384,76.892 12.384,76.136 C12.384,75.416 12.672,74.732 13.104,74.3 C13.536,73.796 14.13,73.526 14.76,73.526 C15.444,73.526 16.002,73.796 16.47,74.3 C16.866,74.732 17.154,75.416 17.154,76.136 C17.154,76.892 16.866,77.576 16.47,77.99 C16.002,78.476 15.444,78.728 14.76,78.728 Z M35.1,80.6 C35.622,80.6 36.054,80.168 36.054,79.646 L36.054,75.38 C36.054,73.292 34.38,71.6 32.31,71.6 C31.176,71.6 30.15,72.068 29.484,72.842 C28.8,72.068 27.792,71.6 26.658,71.6 C25.974,71.6 25.308,71.798 24.732,72.14 C24.588,71.798 24.246,71.6 23.868,71.6 C23.346,71.6 22.914,72.014 22.914,72.572 L22.914,79.646 C22.914,80.114 23.256,80.474 23.688,80.582 C23.742,80.582 23.796,80.6 23.868,80.6 C24.246,80.6 24.606,80.348 24.768,80.024 L24.768,79.934 L24.768,79.934 C24.804,79.898 24.804,79.862 24.822,79.826 L24.822,79.772 L24.822,79.772 C24.822,79.736 24.84,79.682 24.84,79.646 L24.84,75.38 C24.84,74.354 25.668,73.526 26.658,73.526 C27.666,73.526 28.494,74.336 28.512,75.326 L28.512,79.646 C28.512,80.1307143 28.9155306,80.5378265 29.3767085,80.5935124 L29.484,80.6 L29.484,80.6 C30.006,80.6 30.438,80.168 30.438,79.646 L30.438,75.326 L30.438,75.326 C30.474,74.336 31.284,73.526 32.31,73.526 C33.3,73.526 34.128,74.354 34.128,75.38 L34.128,79.646 C34.128,80.168 34.578,80.6 35.1,80.6 Z M43.596,80.6 C45.666,80.6 47.394,78.908 47.394,76.856 L47.394,72.554 C47.394,72.05 46.926,71.6 46.422,71.6 C45.882,71.6 45.486,72.05 45.486,72.554 L45.486,76.856 C45.468,77.882 44.64,78.692 43.596,78.692 C42.57,78.692 41.76,77.882 41.76,76.856 L41.76,72.554 C41.76,72.05 41.346,71.6 40.806,71.6 C40.284,71.6 39.852,72.05 39.852,72.554 L39.852,76.856 C39.852,78.908 41.544,80.6 43.596,80.6 Z M53.964,80.6 C54.846,80.6 55.656,80.33 56.304,79.88 C56.952,79.412 57.438,78.674 57.438,77.792 C57.438,77.378 57.312,76.964 57.096,76.604 C56.79,76.1 56.304,75.758 55.818,75.542 C55.296,75.29 54.738,75.128 54.144,75.02 L54.126,75.02 L54.108,75.002 C53.496,74.894 53.028,74.732 52.794,74.57 C52.668,74.498 52.614,74.426 52.596,74.39 C52.56,74.336 52.56,74.318 52.56,74.246 C52.56,74.156 52.614,73.994 52.848,73.832 C53.082,73.652 53.478,73.508 53.928,73.508 C54.504,73.508 55.008,73.796 55.584,74.174 C56.034,74.48 56.628,74.354 56.916,73.922 C57.1652308,73.5066154 57.0770414,72.9685325 56.7222194,72.6616887 L56.628,72.59 C56.052,72.194 55.17,71.6 53.928,71.6 C53.1,71.6 52.344,71.834 51.714,72.266 C51.12,72.716 50.652,73.418 50.652,74.246 C50.652,74.66 50.76,75.056 50.958,75.38 C51.282,75.866 51.714,76.19 52.2,76.424 C52.668,76.64 53.208,76.784 53.766,76.892 L53.784,76.892 C54.432,77.018 54.972,77.216 55.224,77.396 C55.368,77.486 55.44,77.558 55.458,77.612 C55.494,77.666 55.512,77.702 55.512,77.792 C55.512,77.936 55.44,78.116 55.188,78.332 C54.9,78.512 54.45,78.674 53.964,78.674 C53.262,78.692 52.452,78.278 51.984,77.882 C51.588,77.54 50.958,77.594 50.634,78.026 C50.31,78.422 50.364,79.034 50.76,79.358 C51.48,79.934 52.56,80.582 53.964,80.6 Z M60.912,70.34 C61.47,70.34 61.884,69.89 61.884,69.35 L61.884,68.972 C61.884,68.432 61.47,68 60.912,68 C60.372,68 59.94,68.432 59.94,68.972 L59.94,69.35 C59.94,69.89 60.372,70.34 60.912,70.34 Z M60.912,80.6 C61.47,80.6 61.884,80.168 61.884,79.628 L61.884,72.608 C61.884,72.032 61.47,71.618 60.912,71.618 C60.372,71.618 59.94,72.032 59.94,72.608 L59.94,79.628 C59.94,80.168 60.372,80.6 60.912,80.6 Z M68.922,80.6 C70.002,80.6 71.01,80.204 71.784,79.646 C72.198,79.286 72.27,78.71 71.982,78.314 C71.622,77.882 71.028,77.81 70.632,78.116 C70.164,78.458 69.57,78.692 68.922,78.692 C67.464,78.692 66.258,77.504 66.258,76.118 C66.258,74.732 67.464,73.526 68.922,73.526 C69.588,73.526 70.164,73.76 70.632,74.102 C71.046,74.426 71.622,74.354 71.982,73.922 C72.27,73.526 72.198,72.914 71.784,72.59 C71.01,71.996 70.002,71.6 68.922,71.6 C66.438,71.618 64.35,73.616 64.35,76.118 C64.35,78.584 66.438,80.6 68.922,80.6 Z" id="ngmusic" fill="#FFFFFF" fill-rule="nonzero"></path>
                <g id="Group" transform="translate(6.000000, 0.000000)" stroke="#FFFFFF" stroke-linecap="round" stroke-linejoin="round" stroke-width="2">
                    <path d="M20,53.3333333 L20,10 L60,0 L60,43.3333333 M20,53.3333333 C20,57.0166667 15.5233333,60 10,60 C4.47666667,60 0,57.0166667 0,53.3333333 C0,49.65 4.47666667,46.6666667 10,46.6666667 C15.5233333,46.6666667 20,49.65 20,53.3333333 Z M60,43.3333333 C60,47.0166667 55.5233333,50 50,50 C44.4766667,50 40,47.0166667 40,43.3333333 C40,39.65 44.4766667,36.6666667 50,36.6666667 C55.5233333,36.6666667 60,39.65 60,43.3333333 Z M20,23.3333333 L60,13.3333333" id="Shape"></path>
                </g>
            </g>
        </g>
    </g>
</svg>